<svg xmlns="http://www.w3.org/2000/svg" viewBox="0 9.550000190734863 30 34.35000228881836" data-asc="0.878" width="30" height="34.35000228881836"><defs/><g fill="#008080"><g transform="translate(0, 0)"><path d="M0 43.90L0 9.55L18.90 9.55Q22.40 9.55 24.88 10.97Q27.35 12.40 28.68 14.92Q30 17.45 30 20.85Q30 24.35 28.63 26.90Q27.25 29.45 24.73 30.88Q22.20 32.30 18.70 32.30L8.95 32.30L8.95 43.90L0 43.90M8.95 25.40L16.60 25.40Q18.70 25.40 19.80 24.22Q20.90 23.05 20.90 20.95Q20.90 19.45 20.43 18.50Q19.95 17.55 19 17.02Q18.05 16.50 16.60 16.50L8.95 16.50L8.95 25.40Z"/></g></g></svg>